HIERARCHY
ROOT Hips
{
	OFFSET 0.000000 0.000000 0.000000
	CHANNELS 6 Xposition Yposition Zposition Zrotation Yrotation Xrotation 
	JOINT LHipJoint
	{
		OFFSET 0.000000 0.000000 0.000000
		CHANNELS 3 Zrotation Yrotation Xrotation
		JOINT LeftUpLeg
		{
			OFFSET 1.363060 -1.794630 0.839290
			CHANNELS 3 Zrotation Yrotation Xrotation
			JOINT LeftLeg
			{
				OFFSET 2.448110 -6.726130 0.000000
				CHANNELS 3 Zrotation Yrotation Xrotation
				JOINT LeftFoot
				{
					OFFSET 2.562200 -7.039590 0.000000
					CHANNELS 3 Zrotation Yrotation Xrotation
					JOINT LeftToeBase
					{
						OFFSET 0.157640 -0.433110 2.322550
						CHANNELS 3 Zrotation Yrotation Xrotation
						End Site
						{
							OFFSET 0.000000 0.000000 0.000000
						}
					}
				}
			}
		}
	}
	JOINT RHipJoint
	{
		OFFSET 0.000000 0.000000 0.000000
		CHANNELS 3 Zrotation Yrotation Xrotation
		JOINT RightUpLeg
		{
			OFFSET -1.305520 -1.794630 0.839290
			CHANNELS 3 Zrotation Yrotation Xrotation
			JOINT RightLeg
			{
				OFFSET -2.542530 -6.985550 0.000000
				CHANNELS 3 Zrotation Yrotation Xrotation
				JOINT RightFoot
				{
					OFFSET -2.568260 -7.056230 0.000000
					CHANNELS 3 Zrotation Yrotation Xrotation
					JOINT RightToeBase
					{
						OFFSET -0.164730 -0.452590 2.363150
						CHANNELS 3 Zrotation Yrotation Xrotation
						End Site
						{
							OFFSET 0.000000 0.000000 0.000000
						}
					}
				}
			}
		}
	}
	JOINT LowerBack
	{
		OFFSET 0.000000 0.000000 0.000000
		CHANNELS 3 Zrotation Yrotation Xrotation
		JOINT Spine
		{
			OFFSET 0.028270 2.035590 -0.193380
			CHANNELS 3 Zrotation Yrotation Xrotation
			JOINT Spine1
			{
				OFFSET 0.056720 2.048850 -0.042750
				CHANNELS 3 Zrotation Yrotation Xrotation
				JOINT Neck
				{
					OFFSET 0.000000 0.000000 0.000000
					CHANNELS 3 Zrotation Yrotation Xrotation
					JOINT Neck1
					{
						OFFSET -0.054170 1.746240 0.172020
						CHANNELS 3 Zrotation Yrotation Xrotation
						JOINT Head
						{
							OFFSET 0.104070 1.761360 -0.123970
							CHANNELS 3 Zrotation Yrotation Xrotation
							End Site
							{
								OFFSET 0.000000 0.000000 0.000000
							}
						}
					}
				}
				JOINT LeftShoulder
				{
					OFFSET 0.000000 0.000000 0.000000
					CHANNELS 3 Zrotation Yrotation Xrotation
					JOINT LeftArm
					{
						OFFSET 3.362410 1.200890 -0.311210
						CHANNELS 3 Zrotation Yrotation Xrotation
						JOINT LeftForeArm
						{
							OFFSET 4.983000 -0.000000 -0.000000
							CHANNELS 3 Zrotation Yrotation Xrotation
							JOINT LeftHand
							{
								OFFSET 3.483560 -0.000000 -0.000000
								CHANNELS 3 Zrotation Yrotation Xrotation
								JOINT LeftFingerBase
								{
									OFFSET 0.000000 0.000000 0.000000
									CHANNELS 3 Zrotation Yrotation Xrotation
									JOINT LeftHandIndex1
									{
										OFFSET 0.715260 -0.000000 -0.000000
										CHANNELS 3 Zrotation Yrotation Xrotation
										End Site
										{
											OFFSET 0.000000 0.000000 0.000000
										}
									}
								}
								JOINT LThumb
								{
									OFFSET 0.000000 0.000000 0.000000
									CHANNELS 3 Zrotation Yrotation Xrotation
									End Site
									{
										OFFSET 0.000000 0.000000 0.000000
									}
								}
							}
						}
					}
				}
				JOINT RightShoulder
				{
					OFFSET 0.000000 0.000000 0.000000
					CHANNELS 3 Zrotation Yrotation Xrotation
					JOINT RightArm
					{
						OFFSET -3.136600 1.374050 -0.404650
						CHANNELS 3 Zrotation Yrotation Xrotation
						JOINT RightForeArm
						{
							OFFSET -5.241900 -0.000000 -0.000000
							CHANNELS 3 Zrotation Yrotation Xrotation
							JOINT RightHand
							{
								OFFSET -3.444170 -0.000000 -0.000000
								CHANNELS 3 Zrotation Yrotation Xrotation
								JOINT RightFingerBase
								{
									OFFSET 0.000000 0.000000 0.000000
									CHANNELS 3 Zrotation Yrotation Xrotation
									JOINT RightHandIndex1
									{
										OFFSET -0.622530 -0.000000 -0.000000
										CHANNELS 3 Zrotation Yrotation Xrotation
										End Site
										{
											OFFSET 0.000000 0.000000 0.000000
										}
									}
								}
								JOINT RThumb
								{
									OFFSET 0.000000 0.000000 0.000000
									CHANNELS 3 Zrotation Yrotation Xrotation
									End Site
									{
										OFFSET 0.000000 0.000000 0.000000
									}
								}
							}
						}
					}
				}
			}
		}
	}
}
MOTION
Frames: 12
Frame Time: 0.008333
0.323992 23.114434 -2.257391 -2.954447 0.288352 11.839774 1.261730 -0.090622 -0.251459 -12.451386 3.205122 -31.249877 14.655437 19.627011 72.745862 -0.040745 9.511442 20.989608 0.139200 -2.404500 -6.624800 -3.115578 -0.591438 0.085948 22.027252 -1.438716 -28.424338 -20.728409 -20.358376 91.232621 0.038835 -6.086945 14.524995 -0.959900 -6.238600 17.478200 -0.688701 0.251193 1.357352 1.114269 0.288224 -3.011688 1.487870 -0.031833 2.268457 -3.692296 -0.613708 -4.526034 4.855329 -1.062911 22.787708 1.066100 -0.001700 7.719500 8.982451 4.926530 -0.389240 -68.426137 10.046574 46.904299 11.967393 -25.579249 -3.183136 0.045846 -0.787556 -23.713283 18.453440 -2.543915 -0.597400 -7.125000 0.000000 0.000000 -6.064300 28.101100 2.505900 -8.213518 -4.216685 -0.272253 78.662014 -1.386413 28.492984 -18.933793 33.999506 -6.839164 0.560272 0.882275 31.249875 -15.024728 -22.375134 6.109000 7.125000 0.000000 0.000000 14.740600 -53.566800 -3.158900 
0.325108 23.293731 -2.075963 -2.841020 0.125253 11.882667 1.307754 -0.159514 -0.350572 -12.877648 3.003008 -32.661166 14.513688 19.637156 72.370810 -0.382616 10.036259 18.783922 0.131800 -2.339800 -6.445600 -3.162033 -0.541234 0.105941 21.983237 -0.767654 -30.716490 -21.173138 -20.438425 92.635593 0.001840 -4.754122 13.325147 -0.805300 -5.727100 15.994700 -0.810676 0.339973 2.504259 1.087519 0.420109 -2.923084 1.468242 0.033127 2.053895 -3.647833 -0.652712 -4.723039 4.808770 -1.097878 22.522153 1.029100 -0.022700 7.697500 8.986343 4.898709 -0.355250 -69.219365 9.510318 46.500337 11.816394 -25.273371 -3.096477 0.040481 -0.778389 -23.493407 18.643648 -2.762695 -0.681800 -7.125000 0.000000 0.000000 -5.907600 27.860600 2.474200 -8.222665 -4.180502 -0.256873 79.388658 -0.726829 28.062454 -18.617305 33.582080 -6.640479 0.563743 0.871876 31.441765 -15.080359 -22.336732 6.123200 7.125000 0.000000 0.000000 14.658900 -53.532700 -3.128400 
0.327543 23.386880 -1.929847 -2.642959 -0.026606 11.781188 1.361401 -0.232752 -0.458416 -13.333389 2.723204 -34.195134 14.360939 19.651263 71.991412 -0.629665 10.280683 16.925189 0.134700 -2.365100 -6.515900 -3.204873 -0.488811 0.130651 21.772962 -0.063148 -33.159586 -21.600242 -20.515088 93.971968 -0.051445 -3.389434 12.202005 -0.660900 -5.199400 14.478200 -1.027160 0.417292 3.805904 1.052420 0.531116 -2.827533 1.453314 0.087594 1.787399 -3.568414 -0.671490 -4.880720 4.759103 -1.112341 22.231400 0.982800 -0.031200 7.659600 8.990199 4.865354 -0.320843 -69.979576 9.002509 46.081608 11.677704 -24.983810 -3.016488 0.036905 -0.769536 -23.362696 18.843175 -2.923212 -0.747900 -7.125000 0.000000 0.000000 -5.747800 27.681200 2.431100 -8.235080 -4.140059 -0.240444 80.138174 -0.157558 27.550537 -18.392957 33.261947 -6.495945 0.566763 0.861581 31.539315 -15.172476 -22.315785 6.157600 7.125000 0.000000 0.000000 14.548000 -53.522500 -3.100300 
0.329776 23.466127 -1.781499 -2.399037 -0.143559 11.546447 1.399264 -0.298177 -0.553530 -13.818095 2.504654 -35.495007 14.078024 19.621787 71.249594 -0.792509 10.257342 15.384244 0.144500 -2.449800 -6.750400 -3.227697 -0.438674 0.148354 21.507344 0.507818 -35.346045 -21.841157 -20.586893 94.753849 -0.108977 -2.063513 11.114131 -0.526100 -4.648300 12.908000 -1.288474 0.480485 5.234769 1.015238 0.614618 -2.725454 1.443138 0.127687 1.480393 -3.474390 -0.674567 -5.011046 4.717648 -1.111917 21.937731 0.936700 -0.030700 7.616500 8.993291 4.826895 -0.285993 -70.714887 8.519730 45.663442 11.547938 -24.705839 -2.941109 0.034784 -0.761101 -23.320392 19.057828 -3.038982 -0.800100 -7.125000 0.000000 0.000000 -5.578900 27.549000 2.376500 -8.248360 -4.096868 -0.223902 80.870023 0.329925 27.034166 -18.232014 33.010860 -6.387997 0.569752 0.851329 31.628088 -15.275754 -22.308179 6.200000 7.125000 0.000000 0.000000 14.432100 -53.527700 -3.076600 
0.332414 23.531271 -1.629802 -2.134200 -0.219889 11.217700 1.427370 -0.357457 -0.638724 -14.312138 2.340585 -36.633952 13.736696 19.566820 70.352320 -0.898022 10.022460 13.989301 0.159800 -2.575400 -7.098800 -3.236980 -0.390827 0.158775 21.226963 0.957526 -37.293049 -21.933887 -20.657273 95.093669 -0.161074 -0.818420 9.945640 -0.405400 -4.087800 11.323800 -1.562620 0.532637 6.724982 0.980596 0.673449 -2.619928 1.443856 0.155287 1.155132 -3.399371 -0.671218 -5.120674 4.701445 -1.108464 21.662790 0.904800 -0.028200 7.576200 8.994298 4.785775 -0.250748 -71.438419 8.055571 45.264697 11.419365 -24.429472 -2.866712 0.033095 -0.753261 -23.327769 19.298113 -3.142863 -0.850200 -7.125000 0.000000 0.000000 -5.391100 27.429200 2.311100 -8.260418 -4.052721 -0.207972 81.541160 0.761483 26.579776 -18.089341 32.780440 -6.290893 0.573874 0.840474 31.776021 -15.397076 -22.285869 6.246400 7.125000 0.000000 0.000000 14.291400 -53.521700 -3.043500 
0.335762 23.582310 -1.473336 -1.877550 -0.242712 10.845469 1.444637 -0.413731 -0.716417 -14.794490 2.223296 -37.649139 13.320433 19.477774 69.231490 -0.954048 9.673764 12.831090 0.175200 -2.696300 -7.434400 -3.234475 -0.343045 0.162760 20.967839 1.308592 -39.052177 -21.866577 -20.731811 94.954305 -0.208540 0.280951 8.785774 -0.301300 -3.529500 9.756600 -1.814328 0.573625 8.204564 0.952365 0.709134 -2.516752 1.454559 0.171217 0.827351 -3.351203 -0.669915 -5.212697 4.707544 -1.110740 21.422160 0.887500 -0.028500 7.544000 8.993471 4.744546 -0.216153 -72.150582 7.614381 44.913625 11.290610 -24.154032 -2.792919 0.030861 -0.746048 -23.353747 19.558816 -3.273286 -0.911800 -7.125000 0.000000 0.000000 -5.186300 27.280900 2.240800 -8.269423 -4.009166 -0.193565 82.125850 1.143968 26.226260 -17.938522 32.543049 -6.190108 0.579328 0.829385 32.010837 -15.524734 -22.249560 6.292000 7.125000 0.000000 0.000000 14.138300 -53.504000 -3.003700 
0.340227 23.619143 -1.311188 -1.653782 -0.212028 10.496720 1.454372 -0.470127 -0.790620 -15.248861 2.128250 -38.609211 12.848541 19.358342 67.936267 -0.976929 9.270727 11.865228 0.190700 -2.812500 -7.757200 -3.224252 -0.293742 0.161990 20.752696 1.607660 -40.680821 -21.649831 -20.811283 94.369982 -0.253207 1.229574 7.677198 -0.215500 -2.988600 8.247100 -2.011033 0.603595 9.580666 0.932376 0.727372 -2.419193 1.467944 0.178671 0.532573 -3.330213 -0.679740 -5.306012 4.730392 -1.128636 21.224455 0.882600 -0.036700 7.524800 8.991078 4.706891 -0.182755 -72.851859 7.173885 44.628613 11.155382 -23.871244 -2.717905 0.028317 -0.739125 -23.366701 19.794986 -3.411824 -0.976500 -7.125000 0.000000 0.000000 -5.000500 27.123900 2.178500 -8.274433 -3.969007 -0.181090 82.615781 1.505302 25.974463 -17.751908 32.269024 -6.071283 0.585360 0.818936 32.319395 -15.631378 -22.199591 6.324900 7.125000 0.000000 0.000000 14.001500 -53.469500 -2.961800 
0.345199 23.642075 -1.142749 -1.482770 -0.131533 10.222004 1.459265 -0.528837 -0.864621 -15.653867 2.035052 -39.566986 12.335331 19.210785 66.500783 -0.975653 8.859243 11.106516 0.203400 -2.904000 -8.011500 -3.210078 -0.241640 0.157962 20.603331 1.903360 -42.219102 -21.291075 -20.893614 93.366541 -0.296127 2.028576 6.691488 -0.149700 -2.493100 6.870400 -2.141278 0.620619 10.784257 0.923452 0.731831 -2.329593 1.490629 0.178390 0.296704 -3.342162 -0.701348 -5.413558 4.767334 -1.159954 21.073986 0.890500 -0.052000 7.521300 8.988296 4.675615 -0.150729 -73.548932 6.731783 44.398048 11.014875 -23.585936 -2.643342 0.025872 -0.732342 -23.320501 19.972608 -3.529997 -1.031700 -7.125000 0.000000 0.000000 -4.861400 26.989000 2.132900 -8.275297 -3.934694 -0.170779 83.017447 1.870405 25.808599 -17.524628 31.952819 -5.932573 0.591470 0.810220 32.654542 -15.712181 -22.153118 6.347600 7.125000 0.000000 0.000000 13.894200 -53.435200 -2.926700 
0.350577 23.651816 -0.967004 -1.368058 -0.019104 10.052059 1.460472 -0.590836 -0.939401 -16.006809 1.934450 -40.542670 11.787635 19.034452 64.941391 -0.957462 8.466759 10.553638 0.213100 -2.971900 -8.200600 -3.193503 -0.186138 0.151455 20.511395 2.232866 -43.673182 -20.793331 -20.972588 91.958852 -0.338570 2.701874 5.884560 -0.101100 -2.050700 5.645800 -2.205784 0.628411 11.766523 0.924788 0.731789 -2.250650 1.519816 0.174947 0.132311 -3.368194 -0.733722 -5.534069 4.796606 -1.200435 20.974130 0.899000 -0.072300 7.533000 8.986949 4.652739 -0.120420 -74.239050 6.291899 44.226044 10.869766 -23.300238 -2.569843 0.023451 -0.725748 -23.193658 20.080525 -3.626259 -1.075500 -7.125000 0.000000 0.000000 -4.777100 26.878400 2.108100 -8.271983 -3.907764 -0.162567 83.347511 2.231564 25.692663 -17.264307 31.603383 -5.778852 0.596364 0.804861 32.953106 -15.741624 -22.135355 6.355700 7.125000 0.000000 0.000000 13.854400 -53.421700 -2.913400 
0.355853 23.649280 -0.783344 -1.309171 0.110709 9.990725 1.457979 -0.656154 -1.014814 -16.303805 1.823755 -41.526766 11.207763 18.826731 63.261232 -0.926738 8.104547 10.204867 0.217600 -3.002800 -8.286500 -3.174847 -0.127066 0.142049 20.466582 2.614563 -45.023649 -20.157905 -21.038937 90.156087 -0.379365 3.261742 5.287776 -0.065500 -1.651800 4.544400 -2.214440 0.629465 12.520079 0.935142 0.731804 -2.182424 1.556293 0.170405 0.040640 -3.405803 -0.771812 -5.656629 4.817775 -1.243994 20.915718 0.907500 -0.094800 7.553300 8.987823 4.638094 -0.091398 -74.920754 5.857412 44.087538 10.724169 -23.021081 -2.499605 0.021703 -0.719342 -22.979468 20.109991 -3.668693 -1.094800 -7.125000 0.000000 0.000000 -4.755900 26.826700 2.104500 -8.265910 -3.888890 -0.155636 83.633773 2.591672 25.583248 -16.982443 31.232697 -5.616833 0.600142 0.802913 33.190676 -15.734861 -22.156761 6.358600 7.125000 0.000000 0.000000 13.871100 -53.442400 -2.924100 
0.360825 23.634364 -0.591668 -1.290288 0.244438 10.022741 1.450435 -0.724320 -1.089171 -16.556331 1.706247 -42.492404 10.595003 18.582633 61.456187 -0.884474 7.768175 10.061323 0.218000 -3.005700 -8.294500 -3.152951 -0.064901 0.129002 20.442397 3.039873 -46.236195 -19.388916 -21.079502 87.973329 -0.415833 3.700195 4.918768 -0.041300 -1.311600 3.606700 -2.186936 0.629072 13.062688 0.951806 0.737455 -2.126090 1.600376 0.167922 0.005007 -3.453426 -0.814025 -5.754733 4.831673 -1.290757 20.892619 0.915700 -0.119500 7.574300 8.991172 4.630156 -0.063441 -75.588323 5.441549 43.984579 10.582723 -22.755588 -2.433756 0.020127 -0.713415 -22.711059 20.094316 -3.691341 -1.104000 -7.125000 0.000000 0.000000 -4.770100 26.797400 2.114100 -8.258397 -3.877251 -0.149241 83.893546 2.934449 25.452392 -16.692871 30.855510 -5.453921 0.603136 0.803807 33.358144 -15.712573 -22.212679 6.363800 7.125000 0.000000 0.000000 13.920900 -53.495900 -2.953300 
0.365290 23.607474 -0.391469 -1.305874 0.375178 10.104619 1.435004 -0.793749 -1.159771 -16.763128 1.598469 -43.379287 9.947699 18.295345 59.517114 -0.828776 7.443876 10.135376 0.212100 -2.964800 -8.180800 -3.125783 -0.000368 0.110398 20.433108 3.481057 -47.243134 -18.490623 -21.077922 85.424023 -0.446118 4.014645 4.739636 -0.023900 -0.997300 2.741300 -2.132118 0.627270 13.444555 0.973400 0.747532 -2.079196 1.648435 0.166852 0.010694 -3.483607 -0.855144 -5.835911 4.817254 -1.331884 20.912986 0.910000 -0.141100 7.602500 8.998126 4.628355 -0.036863 -76.240825 5.060276 43.887064 10.453870 -22.516247 -2.375148 0.018863 -0.708258 -22.421887 20.065219 -3.699650 -1.106800 -7.125000 0.000000 0.000000 -4.795000 26.784500 2.126700 -8.248868 -3.871109 -0.143358 84.140242 3.247587 25.283912 -16.407078 30.484203 -5.295772 0.606157 0.806494 33.499954 -15.693297 -22.302090 6.379100 7.125000 0.000000 0.000000 13.984800 -53.584600 -2.997900 
